<svg width="1200" height="630" viewBox="0 0 1200 630" fill="none" xmlns="http://www.w3.org/2000/svg">
  <defs>
    <linearGradient id="bg" x1="80" y1="40" x2="1120" y2="590" gradientUnits="userSpaceOnUse">
      <stop stop-color="#081A2D"/>
      <stop offset="0.55" stop-color="#102A47"/>
      <stop offset="1" stop-color="#163A4A"/>
    </linearGradient>
    <linearGradient id="card" x1="178" y1="120" x2="438" y2="472" gradientUnits="userSpaceOnUse">
      <stop stop-color="#16344D"/>
      <stop offset="1" stop-color="#0E2237"/>
    </linearGradient>
    <linearGradient id="glow" x1="684" y1="148" x2="979" y2="446" gradientUnits="userSpaceOnUse">
      <stop stop-color="#38D7C5"/>
      <stop offset="1" stop-color="#7FE7D2"/>
    </linearGradient>
    <filter id="blur" x="0" y="0" width="1200" height="630" filterUnits="userSpaceOnUse" color-interpolation-filters="sRGB">
      <feGaussianBlur stdDeviation="36"/>
    </filter>
  </defs>
  <rect width="1200" height="630" rx="32" fill="url(#bg)"/>
  <g opacity="0.16">
    <path d="M0 120H1200M0 222H1200M0 324H1200M0 426H1200M0 528H1200" stroke="#9BD7E8"/>
    <path d="M96 0V630M246 0V630M396 0V630M546 0V630M696 0V630M846 0V630M996 0V630M1146 0V630" stroke="#9BD7E8"/>
  </g>
  <g filter="url(#blur)" opacity="0.3">
    <circle cx="987" cy="121" r="114" fill="#3FE3C9"/>
    <circle cx="214" cy="505" r="96" fill="#2CA1FF"/>
  </g>
  <g opacity="0.95">
    <rect x="112" y="126" width="258" height="84" rx="20" fill="url(#card)" stroke="#5C85A6" stroke-opacity="0.6"/>
    <text x="144" y="178" fill="#D6E6F2" font-family="PingFang SC, Microsoft YaHei, sans-serif" font-size="34" font-weight="600">工具层</text>
    <text x="314" y="178" text-anchor="end" fill="#6EA0C8" font-family="IBM Plex Mono, Menlo, monospace" font-size="24">vNext</text>
    <rect x="142" y="236" width="228" height="62" rx="16" fill="#10273D" stroke="#2A5B83"/>
    <text x="174" y="275" fill="#DDEBFA" font-family="PingFang SC, Microsoft YaHei, sans-serif" font-size="24">Prompt</text>
    <circle cx="336" cy="267" r="10" fill="#3FD5B7"/>
    <rect x="170" y="322" width="228" height="62" rx="16" fill="#12324A" stroke="#2A7C8E"/>
    <text x="202" y="361" fill="#DDEBFA" font-family="PingFang SC, Microsoft YaHei, sans-serif" font-size="24">Workflow</text>
    <circle cx="364" cy="353" r="10" fill="#FFD16E"/>
    <rect x="198" y="408" width="228" height="62" rx="16" fill="#153B49" stroke="#54B1A5"/>
    <text x="230" y="447" fill="#DDEBFA" font-family="PingFang SC, Microsoft YaHei, sans-serif" font-size="24">Agent</text>
    <circle cx="392" cy="439" r="10" fill="#61D6FF"/>
    <path d="M420 164C456 164 485 193 485 229V448" stroke="#6B8BA7" stroke-width="3" stroke-dasharray="8 10"/>
  </g>
  <g>
    <circle cx="856" cy="314" r="168" fill="#091D2D" stroke="#52D8C0" stroke-width="2"/>
    <circle cx="856" cy="314" r="128" fill="none" stroke="url(#glow)" stroke-width="18" stroke-linecap="round" stroke-dasharray="210 48 132 48 176 48"/>
    <path d="M956 228L984 214L972 245" fill="#7FE7D2"/>
    <path d="M953 418L980 434L949 443" fill="#7FE7D2"/>
    <path d="M767 427L741 447L738 415" fill="#7FE7D2"/>
    <path d="M759 221L734 202L765 194" fill="#7FE7D2"/>
    <g fill="#DFF7F2" font-family="PingFang SC, Microsoft YaHei, sans-serif">
      <text x="856" y="212" text-anchor="middle" font-size="28" font-weight="600">拆解问题</text>
      <text x="995" y="326" text-anchor="middle" font-size="28" font-weight="600">验证假设</text>
      <text x="856" y="462" text-anchor="middle" font-size="28" font-weight="600">设计迭代</text>
      <text x="708" y="326" text-anchor="middle" font-size="28" font-weight="600">持续打分</text>
    </g>
    <text x="856" y="307" text-anchor="middle" fill="#FFFFFF" font-family="PingFang SC, Microsoft YaHei, sans-serif" font-size="44" font-weight="700">框架</text>
    <text x="856" y="352" text-anchor="middle" fill="#8DBCC6" font-family="IBM Plex Mono, Menlo, monospace" font-size="22">portable, reusable, compounding</text>
  </g>
  <g>
    <text x="612" y="120" fill="#7EE9D2" font-family="IBM Plex Mono, Menlo, monospace" font-size="22">AI / Learning Framework</text>
    <text x="612" y="214" fill="#FFFFFF" font-family="PingFang SC, Microsoft YaHei, sans-serif" font-size="68" font-weight="700">工具会过时，</text>
    <text x="612" y="292" fill="#FFFFFF" font-family="PingFang SC, Microsoft YaHei, sans-serif" font-size="68" font-weight="700">框架不会</text>
    <text x="612" y="360" fill="#A6C3D8" font-family="PingFang SC, Microsoft YaHei, sans-serif" font-size="28">学工具是战术，学框架是战略</text>
    <rect x="612" y="408" width="376" height="64" rx="18" fill="#0F2335" stroke="#275A71"/>
    <text x="646" y="449" fill="#D7EEF8" font-family="PingFang SC, Microsoft YaHei, sans-serif" font-size="24">把新工具嵌进旧框架，而不是反过来</text>
  </g>
</svg>
